<?xml version="1.0" standalone="no"?>
<!DOCTYPE svg PUBLIC "-//W3C//DTD SVG 20010904//EN"
 "http://www.w3.org/TR/2001/REC-SVG-20010904/DTD/svg10.dtd">
<svg version="1.0" xmlns="http://www.w3.org/2000/svg"
 width="1280.000000pt" height="1280.000000pt" viewBox="0 0 1280.000000 1280.000000"
 preserveAspectRatio="xMidYMid meet">

<g transform="translate(0.000000,1280.000000) scale(0.100000,-0.100000)"
fill="#000000" stroke="none">
<path d="M3865 10700 c-13 -6 -15 -9 -5 -9 8 0 22 4 30 9 18 12 2 12 -25 0z"/>
<path d="M4275 10700 c11 -5 27 -9 35 -9 9 0 8 4 -5 9 -11 5 -27 9 -35 9 -9 0
-8 -4 5 -9z"/>
<path d="M8496 10701 c-4 -5 3 -7 14 -4 23 6 26 13 6 13 -8 0 -17 -4 -20 -9z"/>
<path d="M8905 10700 c11 -5 27 -9 35 -9 9 0 8 4 -5 9 -11 5 -27 9 -35 9 -9 0
-8 -4 5 -9z"/>
<path d="M3560 10683 c-41 -2 -78 -7 -82 -11 -4 -4 43 -4 105 0 190 13 174 20
-23 11z"/>
<path d="M4390 10684 c29 -8 200 -20 192 -13 -4 4 -52 9 -107 12 -55 3 -93 4
-85 1z"/>
<path d="M9075 10684 c39 -8 244 -19 237 -13 -4 4 -63 9 -132 12 -69 3 -116 3
-105 1z"/>
<path d="M8238 10673 c12 -2 30 -2 40 0 9 3 -1 5 -23 4 -22 0 -30 -2 -17 -4z"/>
<path d="M9365 10649 c19 -7 132 -13 124 -5 -2 2 -35 6 -74 8 -40 3 -61 2 -50
-3z"/>
<path d="M3328 10643 c18 -2 45 -2 60 0 15 2 0 4 -33 4 -33 0 -45 -2 -27 -4z"/>
<path d="M4663 10643 c15 -2 37 -2 50 0 12 2 0 4 -28 4 -27 0 -38 -2 -22 -4z"/>
<path d="M8083 10643 c9 -2 23 -2 30 0 6 3 -1 5 -18 5 -16 0 -22 -2 -12 -5z"/>
<path d="M3250 10630 c-9 -6 -10 -10 -3 -10 6 0 15 5 18 10 8 12 4 12 -15 0z"/>
<path d="M4747 10629 c7 -7 15 -10 18 -7 3 3 -2 9 -12 12 -14 6 -15 5 -6 -5z"/>
<path d="M9527 10629 c7 -7 15 -10 18 -7 3 3 -2 9 -12 12 -14 6 -15 5 -6 -5z"/>
<path d="M3173 10613 c9 -2 25 -2 35 0 9 3 1 5 -18 5 -19 0 -27 -2 -17 -5z"/>
<path d="M4803 10613 c9 -2 23 -2 30 0 6 3 -1 5 -18 5 -16 0 -22 -2 -12 -5z"/>
<path d="M9588 10613 c12 -2 30 -2 40 0 9 3 -1 5 -23 4 -22 0 -30 -2 -17 -4z"/>
<path d="M3105 10600 c-3 -6 1 -7 9 -4 18 7 21 14 7 14 -6 0 -13 -4 -16 -10z"/>
<path d="M4860 10606 c0 -2 7 -7 16 -10 8 -3 12 -2 9 4 -6 10 -25 14 -25 6z"/>
<path d="M9670 10600 c8 -5 20 -10 25 -10 6 0 3 5 -5 10 -8 5 -19 10 -25 10
-5 0 -3 -5 5 -10z"/>
<path d="M3020 10583 c-19 -3 -41 -10 -48 -15 -7 -6 -30 -15 -50 -19 -35 -6
-36 -7 -6 -8 16 0 39 6 50 14 10 8 33 15 49 16 17 0 41 5 55 9 28 9 11 10 -50
3z"/>
<path d="M4915 10580 c11 -5 31 -9 45 -10 14 0 34 -7 44 -15 11 -8 34 -14 50
-14 30 1 29 2 -6 8 -20 4 -43 12 -50 18 -7 6 -33 13 -58 16 -30 4 -38 3 -25
-3z"/>
<path d="M9725 10580 c11 -5 34 -9 50 -10 17 0 39 -7 49 -15 11 -8 36 -14 55
-14 l36 2 -42 6 c-23 4 -47 12 -55 18 -7 5 -35 13 -63 16 -32 4 -43 3 -30 -3z"/>
<path d="M7818 10573 c6 -2 18 -2 25 0 6 3 1 5 -13 5 -14 0 -19 -2 -12 -5z"/>
<path d="M7738 10543 c7 -3 16 -2 19 1 4 3 -2 6 -13 5 -11 0 -14 -3 -6 -6z"/>
<path d="M2856 10531 c-3 -5 -18 -11 -33 -14 -39 -8 -129 -41 -145 -54 -7 -6
-26 -13 -43 -16 l-30 -4 31 -2 c16 0 35 4 41 10 13 13 104 48 145 56 23 4 62
33 45 33 -3 0 -8 -4 -11 -9z"/>
<path d="M5099 10528 c7 -10 23 -17 35 -17 20 1 20 2 1 6 -11 3 -27 10 -35 17
-13 10 -13 9 -1 -6z"/>
<path d="M7658 10513 c7 -3 16 -2 19 1 4 3 -2 6 -13 5 -11 0 -14 -3 -6 -6z"/>
<path d="M9958 10513 c6 -2 18 -2 25 0 6 3 1 5 -13 5 -14 0 -19 -2 -12 -5z"/>
<path d="M5174 10494 c11 -7 34 -17 52 -20 18 -3 38 -12 45 -20 6 -8 21 -13
33 -13 20 1 20 2 1 6 -11 3 -26 10 -33 16 -7 6 -37 18 -65 28 -38 13 -47 14
-33 3z"/>
<path d="M10016 10496 c11 -8 34 -18 50 -22 16 -4 38 -13 49 -20 11 -8 29 -14
40 -13 13 0 9 4 -12 10 -18 5 -35 14 -38 19 -3 6 -14 10 -23 10 -9 0 -30 7
-46 15 -36 19 -47 19 -20 1z"/>
<path d="M7558 10473 c7 -3 16 -2 19 1 4 3 -2 6 -13 5 -11 0 -14 -3 -6 -6z"/>
<path d="M7488 10443 c7 -3 16 -2 19 1 4 3 -2 6 -13 5 -11 0 -14 -3 -6 -6z"/>
<path d="M2545 10410 c-27 -16 -57 -29 -66 -29 -9 -1 -22 -8 -29 -16 -7 -8
-19 -15 -27 -15 -7 0 -26 -8 -41 -19 -72 -50 -124 -81 -136 -81 -7 0 -25 -14
-42 -32 -16 -18 -20 -26 -9 -18 11 8 24 21 28 28 4 6 14 12 22 12 7 0 37 16
66 35 30 19 59 35 65 35 7 0 14 7 18 15 3 8 14 15 24 15 11 0 25 7 32 15 7 8
19 15 26 15 8 0 31 9 51 20 21 11 43 20 49 20 7 0 14 7 18 15 3 8 4 15 3 14
-1 -1 -24 -14 -52 -29z"/>
<path d="M5339 10427 c7 -10 21 -17 31 -17 10 0 23 -6 29 -14 7 -8 26 -18 42
-21 17 -4 33 -13 36 -21 3 -8 15 -14 27 -14 20 0 20 1 -4 15 -14 8 -36 19 -50
25 -34 15 -43 19 -60 28 -8 5 -26 15 -40 22 -23 12 -24 12 -11 -3z"/>
<path d="M10208 10413 c7 -3 16 -2 19 1 4 3 -2 6 -13 5 -11 0 -14 -3 -6 -6z"/>
<path d="M7288 10343 c7 -3 16 -2 19 1 4 3 -2 6 -13 5 -11 0 -14 -3 -6 -6z"/>
<path d="M10358 10343 c7 -3 16 -2 19 1 4 3 -2 6 -13 5 -11 0 -14 -3 -6 -6z"/>
<path d="M5536 10326 c2 -6 17 -17 32 -24 15 -6 41 -21 57 -32 17 -11 37 -23
45 -27 8 -3 26 -15 39 -25 13 -10 28 -18 34 -18 10 0 -44 39 -73 53 -8 4 -27
15 -42 25 -71 46 -96 60 -92 48z"/>
<path d="M7070 10222 c-14 -9 -51 -36 -82 -59 -31 -24 -60 -43 -64 -43 -3 0
-44 -31 -89 -70 -45 -38 -86 -70 -91 -70 -4 0 -81 -72 -170 -160 -89 -88 -168
-160 -176 -160 -8 0 -73 57 -144 127 -156 154 -196 191 -188 169 3 -9 10 -16
14 -16 4 0 73 -65 154 -145 81 -80 153 -145 159 -145 19 1 44 23 198 175 81
80 150 145 154 145 7 0 80 58 134 107 20 18 40 33 44 33 7 0 56 35 162 114 27
20 16 19 -15 -2z"/>
<path d="M2150 10183 c-44 -17 -233 -180 -361 -310 -123 -125 -379 -435 -379
-459 0 -4 -21 -39 -48 -78 -26 -39 -60 -98 -76 -131 -16 -33 -40 -74 -53 -92
-13 -17 -23 -37 -23 -43 0 -7 -6 -24 -14 -38 -25 -47 -56 -118 -56 -129 0 -6
-7 -16 -15 -23 -8 -7 -15 -21 -15 -31 0 -11 -9 -36 -20 -56 -11 -21 -20 -47
-19 -58 0 -12 5 -6 11 14 5 19 16 44 24 55 8 11 14 30 14 42 0 12 7 27 15 34
8 7 15 17 15 23 0 11 31 82 56 129 8 14 14 33 14 42 0 8 6 19 13 23 7 4 32 47
56 96 24 48 47 87 52 87 5 0 9 6 9 13 0 8 14 33 30 56 17 23 35 53 40 67 5 13
14 24 20 24 5 0 10 4 10 10 0 5 46 69 102 142 99 131 401 447 426 448 6 0 12
4 12 9 0 4 19 21 43 37 23 16 46 35 50 41 4 7 14 13 21 13 8 0 16 7 20 15 3 8
12 15 20 15 8 0 18 5 21 10 7 11 7 11 -15 3z"/>
<path d="M11511 9174 c0 -11 3 -14 6 -6 3 7 2 16 -1 19 -3 4 -6 -2 -5 -13z"/>
<path d="M10280 9165 c-30 -9 -88 -31 -129 -51 -88 -41 -190 -138 -236 -226
l-30 -57 -65 81 c-93 116 -146 164 -219 200 -61 31 -70 32 -213 36 -162 5
-202 -2 -300 -49 -108 -51 -189 -123 -231 -204 -23 -46 -47 -175 -47 -258 0
-178 110 -428 273 -622 28 -35 142 -153 252 -262 176 -176 228 -222 345 -308
l27 -20 -82 0 c-70 0 -86 -3 -117 -24 -72 -50 -107 -146 -75 -207 20 -38 65
-80 100 -93 50 -19 129 -13 181 13 45 23 49 23 87 8 l39 -15 -30 -18 c-64 -39
-25 -84 66 -77 40 3 54 1 54 -8 0 -7 -7 -64 -14 -126 -28 -214 -49 -604 -43
-798 5 -175 8 -200 60 -455 31 -148 61 -324 68 -390 17 -171 15 -573 -4 -715
-23 -167 -51 -354 -54 -359 -5 -7 -77 45 -159 114 -43 36 -111 93 -150 126
-151 127 -526 558 -540 621 -4 15 -28 52 -54 82 -194 222 -479 656 -539 822
l-23 61 -91 6 c-85 6 -274 38 -293 50 -5 3 -8 29 -6 59 l4 54 91 18 c242 46
455 147 593 283 32 32 56 48 60 42 13 -22 90 -49 142 -49 90 0 128 30 193 156
35 68 40 85 35 122 -9 66 -39 114 -87 141 -24 13 -45 25 -46 26 -4 2 25 211
38 280 7 33 12 150 13 260 0 182 -2 207 -23 280 -52 177 -146 315 -298 437
-17 14 -65 65 -106 114 -206 247 -357 317 -682 318 -148 0 -200 -10 -418 -80
-226 -74 -394 -143 -654 -270 -95 -46 -142 -74 -143 -85 0 -20 56 -72 138
-128 l61 -41 -77 -118 c-84 -127 -111 -186 -136 -303 -60 -273 -53 -390 46
-699 48 -151 139 -300 255 -416 61 -61 89 -81 195 -132 114 -56 237 -95 369
-117 l37 -5 4 -73 c3 -39 4 -73 3 -74 -6 -10 -136 -34 -232 -42 -179 -17 -181
-17 -199 -54 -33 -65 -199 -304 -264 -382 -75 -89 -373 -403 -400 -422 -16
-11 -19 -7 -30 35 -7 26 -18 70 -26 97 -49 185 -85 374 -114 603 -41 315 -47
1159 -10 1272 7 19 14 110 17 202 6 197 -4 254 -76 412 -60 131 -101 204 -169
296 -133 181 -198 238 -369 324 -117 59 -217 86 -318 87 -74 1 -186 -18 -245
-41 -14 -5 -108 -12 -210 -14 -164 -3 -196 -7 -279 -31 -180 -51 -380 -163
-492 -274 -83 -84 -171 -209 -209 -297 -18 -43 -49 -115 -68 -159 -65 -153
-115 -469 -132 -835 -29 -664 -42 -915 -55 -1110 -8 -118 -17 -276 -21 -350
-4 -90 -14 -169 -30 -236 -13 -56 -24 -106 -24 -112 0 -16 94 -57 223 -98 32
-10 45 -19 40 -27 -39 -66 -121 -157 -317 -351 -288 -284 -355 -344 -366 -327
-4 8 -12 39 -18 70 -80 439 -78 725 8 1111 51 226 59 294 69 575 5 154 8 341
6 416 -5 163 -37 387 -71 501 -33 111 -32 118 12 118 36 0 73 15 86 34 11 16
10 64 -2 71 -15 9 -12 19 9 32 16 10 26 9 51 -4 65 -32 213 -8 260 42 21 23
25 36 25 92 0 59 -2 67 -28 88 -17 13 -57 27 -98 35 -60 11 -80 11 -142 -2
-39 -9 -73 -15 -74 -14 -1 1 44 37 101 79 237 175 497 455 639 689 134 219
168 437 100 637 -53 157 -207 260 -390 261 -147 0 -280 -53 -445 -179 l-58
-43 -67 60 c-96 84 -245 183 -333 219 -129 54 -298 65 -373 26 -41 -21 -134
-110 -161 -153 -39 -62 -65 -152 -80 -277 -28 -241 17 -414 179 -688 75 -127
242 -314 443 -496 l93 -84 -73 -1 c-138 -1 -211 -43 -223 -127 -15 -101 44
-184 149 -208 55 -12 57 -12 123 22 l68 34 22 -22 c19 -20 20 -26 10 -53 -15
-41 6 -61 70 -67 47 -5 48 -6 51 -41 1 -20 11 -65 22 -101 10 -36 31 -142 45
-235 26 -166 26 -178 20 -505 -3 -185 -10 -367 -15 -406 -13 -103 -38 -245
-50 -285 -21 -69 -59 -297 -67 -400 -11 -147 -5 -406 13 -525 8 -55 17 -127
20 -160 3 -33 12 -86 20 -118 8 -32 12 -62 8 -68 -3 -6 -45 -36 -92 -67 -110
-71 -197 -156 -207 -201 -10 -45 21 -135 59 -171 15 -16 48 -39 71 -51 l44
-23 73 21 c40 12 81 25 92 29 17 6 18 3 11 -33 -4 -27 -2 -43 5 -48 18 -11 30
7 38 55 4 23 14 46 22 51 157 80 277 176 523 419 160 158 177 178 177 209 l0
34 -41 -49 c-62 -74 -319 -325 -412 -403 -124 -104 -226 -163 -355 -205 -61
-20 -117 -36 -123 -36 -7 0 -34 14 -60 31 -40 25 -52 40 -69 86 l-21 55 21 43
c15 31 41 57 96 96 216 154 296 221 505 421 287 275 415 427 595 704 42 66
109 169 148 229 40 61 101 155 136 210 84 131 93 141 74 79 -53 -175 -90 -301
-110 -380 -12 -50 -30 -109 -39 -130 -9 -22 -44 -118 -77 -214 -85 -248 -104
-297 -139 -353 l-30 -49 33 7 c18 4 33 8 34 9 1 2 58 152 88 231 14 39 39 111
55 162 17 50 46 131 64 180 19 48 40 115 47 148 30 147 145 492 217 646 l35
76 51 7 c29 4 106 9 173 13 l120 6 38 -37 c85 -86 176 -86 278 -1 l26 22 114
-18 c62 -10 142 -22 176 -28 71 -11 83 -21 106 -91 40 -123 139 -395 171 -470
109 -251 134 -310 153 -360 71 -183 106 -290 134 -405 33 -138 52 -182 64
-152 8 21 -35 213 -71 317 -14 41 -21 76 -16 78 5 2 35 23 67 49 33 25 91 67
129 94 39 27 101 72 139 102 l70 54 46 -61 c25 -34 73 -99 105 -145 33 -45 66
-91 73 -100 11 -15 -1 -28 -95 -107 -60 -50 -150 -119 -202 -154 -84 -57 -92
-65 -70 -70 26 -7 115 48 233 143 l60 48 27 -28 28 -28 -17 -68 c-14 -58 -14
-70 -2 -77 20 -13 27 -5 34 40 8 53 115 372 165 490 43 104 55 165 32 165 -8
0 -26 -36 -46 -90 -17 -49 -44 -121 -59 -160 -16 -38 -31 -78 -35 -88 -5 -15
-18 -2 -66 65 -33 45 -86 119 -119 163 -32 44 -61 86 -64 93 -3 8 29 47 74 92
213 210 328 353 475 588 43 68 56 82 78 82 59 1 223 20 296 35 l78 16 26 -24
c40 -38 106 -67 151 -67 48 0 87 18 138 65 l37 33 54 -14 c63 -16 245 -44 289
-44 35 0 41 -7 72 -80 65 -156 334 -564 498 -757 35 -41 62 -76 60 -77 -1 -2
-28 -17 -58 -34 -66 -37 -185 -139 -239 -205 l-39 -47 -15 52 c-25 89 -35 140
-47 226 -14 102 -26 140 -42 124 -14 -14 4 -145 42 -307 15 -66 33 -151 39
-190 20 -115 20 -115 42 -115 13 0 19 5 16 13 -3 8 -8 45 -12 83 l-8 69 28
-30 c93 -102 158 -165 169 -165 39 0 28 18 -88 141 -42 44 -76 86 -76 92 0 20
160 172 222 211 67 42 80 44 101 14 90 -138 396 -481 531 -596 131 -112 274
-227 341 -272 36 -25 94 -68 129 -97 124 -102 129 -202 13 -251 -67 -29 -185
-4 -322 66 -111 57 -369 250 -500 374 -75 71 -99 88 -105 77 -6 -9 -1 -23 18
-43 195 -208 548 -458 706 -501 l63 -17 -5 -93 c-5 -98 5 -123 36 -92 11 11
15 38 16 94 l1 78 50 6 c65 7 116 30 143 64 18 22 22 41 22 96 0 37 5 71 10
74 6 4 25 30 44 58 52 80 249 276 285 283 27 6 33 14 57 88 19 57 40 96 71
132 23 28 43 54 43 58 0 4 36 53 80 110 44 57 80 107 80 111 0 5 16 27 35 51
19 23 35 45 35 48 0 4 16 29 35 56 19 27 35 53 35 56 0 3 14 23 30 44 17 21
30 42 30 48 0 5 16 30 35 55 19 25 35 51 35 57 0 5 16 33 35 60 19 27 35 56
35 63 0 7 5 18 11 24 13 13 32 45 52 89 8 17 20 35 26 38 6 4 11 14 11 23 0 9
6 24 14 32 7 9 17 27 20 41 5 19 2 16 -13 -10 -11 -19 -22 -41 -25 -47 -4 -7
-8 -19 -11 -25 -3 -7 -17 -31 -30 -53 -14 -22 -29 -50 -34 -62 -5 -11 -15 -24
-20 -28 -6 -3 -11 -13 -11 -21 0 -8 -16 -37 -35 -64 -19 -27 -35 -56 -35 -64
0 -8 -6 -19 -12 -23 -14 -9 -32 -34 -50 -73 -7 -14 -25 -41 -40 -61 -15 -20
-28 -40 -28 -43 0 -3 -16 -29 -35 -56 -19 -27 -35 -54 -35 -59 0 -6 -6 -14
-12 -18 -15 -10 -52 -61 -61 -85 -3 -10 -11 -18 -17 -18 -5 0 -10 -5 -10 -11
0 -6 -29 -49 -65 -94 -36 -46 -65 -87 -65 -92 0 -4 -21 -30 -45 -58 -25 -27
-58 -68 -73 -90 -24 -36 -42 -59 -92 -114 -8 -10 -26 -33 -39 -52 -26 -35 -41
-54 -111 -129 -23 -25 -67 -76 -97 -113 -30 -38 -58 -65 -62 -60 -4 4 -17 21
-29 36 -17 24 -61 61 -161 137 -18 13 -19 21 -11 70 5 30 21 145 35 255 54
423 41 754 -45 1165 -76 359 -87 474 -71 710 6 80 15 215 21 300 6 85 17 212
26 283 l17 127 38 0 c61 0 100 50 64 80 -14 11 -13 14 2 25 13 10 25 9 62 -8
70 -31 191 -30 255 3 68 35 99 84 100 160 1 65 -20 105 -67 128 -63 31 -256
23 -352 -14 -11 -4 21 33 70 82 150 147 341 359 419 462 174 233 279 424 331
607 45 152 -22 374 -149 499 -32 31 -82 64 -136 90 -79 38 -92 41 -180 43 -60
2 -115 -3 -150 -12z m478 -601 c30 -21 28 -49 -14 -155 -40 -100 -119 -236
-200 -346 -73 -99 -109 -116 -140 -67 -16 24 -16 27 0 57 9 18 43 68 76 112
63 84 144 232 180 328 18 48 49 87 70 87 3 0 16 -7 28 -16z m-8136 -301 c10
-9 18 -22 18 -30 0 -41 91 -184 200 -313 77 -91 90 -114 82 -143 -6 -22 -45
-39 -68 -30 -28 11 -195 216 -249 308 -30 50 -60 111 -66 137 -12 42 -11 49 6
68 22 24 52 26 77 3z m2710 -194 c75 -60 264 -175 380 -229 154 -71 414 -127
551 -117 68 4 69 4 87 -26 41 -66 53 -157 47 -345 -6 -203 -19 -264 -92 -442
-65 -161 -150 -299 -278 -457 -97 -119 -243 -208 -408 -248 -91 -22 -126 -25
-281 -25 -273 0 -442 39 -628 144 -112 64 -206 142 -296 246 -99 114 -233 341
-221 374 3 7 41 33 84 58 72 42 123 78 358 254 137 102 232 193 310 294 98
129 246 379 287 488 17 45 33 82 35 82 1 0 31 -23 65 -51z m5049 -109 c30 -16
26 -73 -7 -99 -33 -26 -49 -26 -74 -1 -27 27 -25 46 9 81 32 32 42 34 72 19z
m-3219 -56 c157 -71 205 -88 303 -113 226 -57 493 -55 700 5 51 15 99 25 107
22 8 -4 32 -39 53 -80 36 -68 81 -141 194 -313 116 -179 285 -369 425 -483
l40 -31 -22 -48 c-11 -26 -37 -85 -56 -131 -99 -234 -272 -379 -572 -478 -91
-29 -134 -37 -257 -47 -136 -10 -160 -9 -310 12 -267 38 -431 90 -563 177 -98
65 -216 209 -286 349 -52 103 -121 354 -133 481 -10 118 49 423 98 504 38 63
149 230 152 230 2 0 59 -25 127 -56z m-4136 -208 c9 -37 -12 -66 -46 -66 -64
0 -94 80 -41 107 32 15 78 -7 87 -41z m51 -322 c58 -20 173 -75 173 -83 0 -3
-22 -19 -50 -36 -27 -16 -84 -52 -127 -80 -65 -42 -85 -50 -123 -49 -88 1
-150 59 -150 140 0 55 29 90 88 108 63 20 131 19 189 0z m6725 -29 c54 -22 98
-42 98 -45 0 -10 -157 -128 -199 -150 -84 -42 -181 -23 -221 43 -25 41 -25 83
0 125 53 86 156 95 322 27z m615 26 c12 -6 27 -28 34 -49 23 -78 -22 -154
-107 -182 -44 -15 -147 -7 -198 14 -47 19 -187 127 -180 138 10 16 125 69 182
83 66 17 235 15 269 -4z m-6738 -35 c41 -22 54 -72 30 -118 -25 -47 -180 -77
-235 -45 -26 15 -144 109 -144 114 0 8 95 47 145 60 60 15 163 10 204 -11z
m495 -459 c25 -58 120 -221 144 -250 14 -16 13 -20 -13 -47 -57 -59 -130 -62
-224 -9 -156 89 -145 288 19 352 38 14 50 6 74 -46z m4920 -42 c59 -28 82
-116 52 -190 -24 -57 -75 -124 -107 -141 -41 -21 -131 -10 -167 21 l-25 22 34
49 c18 27 50 92 71 143 21 52 44 98 51 103 19 12 56 9 91 -7z m-1156 -672
l114 -6 -7 -56 c-9 -72 -16 -84 -73 -123 -59 -40 -103 -41 -167 -3 -56 32 -75
71 -75 151 l0 57 48 -7 c26 -4 98 -9 160 -13z m-2635 -23 l117 0 0 -56 c0 -67
-22 -103 -77 -129 -106 -50 -203 17 -203 140 0 55 1 57 23 51 12 -3 75 -6 140
-6z m766 -541 c79 -94 191 -225 250 -293 149 -172 186 -216 189 -226 2 -5 -18
-24 -44 -42 -26 -18 -82 -59 -124 -90 -42 -32 -80 -58 -83 -58 -3 0 -15 30
-28 68 -24 71 -38 107 -144 352 -73 168 -178 460 -166 460 4 0 72 -77 150
-171z m854 -853 c-18 -45 -19 -46 -42 -30 l-24 17 39 33 c22 17 40 31 42 29 1
-1 -5 -23 -15 -49z"/>
<path d="M5768 7400 c-22 -14 -41 -75 -33 -108 10 -41 34 -62 71 -62 43 0 64
30 64 92 0 72 -48 109 -102 78z"/>
<path d="M5045 7350 c-34 -38 -3 -138 51 -162 31 -14 72 5 80 39 9 34 -4 87
-27 117 -26 32 -77 36 -104 6z"/>
<path d="M5655 6840 c-109 -87 -249 -88 -330 -1 -31 32 -55 40 -55 18 0 -18
57 -71 100 -92 19 -10 65 -20 101 -23 56 -4 75 -1 121 20 60 28 128 83 128
104 0 22 -11 17 -65 -26z"/>
<path d="M7320 7410 c-40 -40 -17 -130 33 -130 23 0 47 39 47 77 0 32 -28 73
-50 73 -5 0 -19 -9 -30 -20z"/>
<path d="M8032 7351 c-7 -4 -17 -26 -22 -47 -20 -89 65 -120 90 -33 13 46 13
55 -6 73 -17 18 -42 20 -62 7z"/>
<path d="M7427 6881 c-8 -37 9 -134 30 -176 102 -200 298 -251 435 -114 68 68
143 236 125 281 -7 20 -68 25 -363 34 l-221 6 -6 -31z m550 -26 c20 -6 -36
-152 -80 -207 -13 -16 -17 -16 -65 2 -66 25 -143 25 -222 1 l-61 -19 -34 46
c-33 45 -55 114 -55 168 l0 25 253 -6 c138 -4 257 -8 264 -10z m-166 -237 c22
-6 39 -14 39 -18 0 -4 -22 -17 -49 -30 -37 -17 -61 -21 -93 -18 -47 5 -118 35
-118 49 0 25 154 38 221 17z"/>
<path d="M11612 8980 c0 -14 2 -19 5 -12 2 6 2 18 0 25 -3 6 -5 1 -5 -13z"/>
<path d="M11641 8914 c0 -11 3 -14 6 -6 3 7 2 16 -1 19 -3 4 -6 -2 -5 -13z"/>
<path d="M11681 8814 c0 -11 3 -14 6 -6 3 7 2 16 -1 19 -3 4 -6 -2 -5 -13z"/>
<path d="M11712 8740 c0 -14 2 -19 5 -12 2 6 2 18 0 25 -3 6 -5 1 -5 -13z"/>
<path d="M1041 8655 c0 -17 -7 -38 -13 -45 -7 -8 -5 -8 5 1 13 11 17 26 14 45
l-4 29 -2 -30z"/>
<path d="M11742 8655 c0 -16 2 -22 5 -12 2 9 2 23 0 30 -3 6 -5 -1 -5 -18z"/>
<path d="M1011 8570 c-1 -14 -4 -36 -6 -50 l-6 -25 11 25 c6 13 9 36 7 50 l-4
25 -2 -25z"/>
<path d="M11772 8570 c0 -14 2 -19 5 -12 2 6 2 18 0 25 -3 6 -5 1 -5 -13z"/>
<path d="M11781 8524 c0 -11 3 -14 6 -6 3 7 2 16 -1 19 -3 4 -6 -2 -5 -13z"/>
<path d="M985 8480 c-3 -5 -8 -33 -10 -62 l-4 -53 9 49 c5 26 11 54 14 62 6
16 0 19 -9 4z"/>
<path d="M11812 8410 c0 -19 2 -27 5 -17 2 9 2 25 0 35 -3 9 -5 1 -5 -18z"/>
<path d="M956 8343 c-6 -14 -5 -15 5 -6 7 7 10 15 7 18 -3 3 -9 -2 -12 -12z"/>
<path d="M11843 8280 c0 -25 2 -35 4 -22 2 12 2 32 0 45 -2 12 -4 2 -4 -23z"/>
<path d="M943 8265 c0 -27 2 -38 4 -22 2 15 2 37 0 50 -2 12 -4 0 -4 -28z"/>
<path d="M927 8191 c-4 -17 -3 -21 5 -13 5 5 8 16 6 23 -3 8 -7 3 -11 -10z"/>
<path d="M913 8090 c0 -41 2 -58 4 -37 2 20 2 54 0 75 -2 20 -4 3 -4 -38z"/>
<path d="M11873 8125 c0 -22 2 -30 4 -17 2 12 2 30 0 40 -3 9 -5 -1 -4 -23z"/>
<path d="M11883 8025 c0 -33 2 -45 4 -27 2 18 2 45 0 60 -2 15 -4 0 -4 -33z"/>
<path d="M901 7974 c0 -11 3 -14 6 -6 3 7 2 16 -1 19 -3 4 -6 -2 -5 -13z"/>
<path d="M11893 7915 c0 -22 2 -30 4 -17 2 12 2 30 0 40 -3 9 -5 -1 -4 -23z"/>
<path d="M886 7884 c-9 -23 -7 -502 2 -507 4 -3 7 114 7 259 0 145 -1 264 -1
264 -1 0 -5 -7 -8 -16z"/>
<path d="M11893 7345 c0 -22 2 -30 4 -17 2 12 2 30 0 40 -3 9 -5 -1 -4 -23z"/>
<path d="M901 7284 c0 -11 3 -14 6 -6 3 7 2 16 -1 19 -3 4 -6 -2 -5 -13z"/>
<path d="M11883 7235 c0 -33 2 -45 4 -27 2 18 2 45 0 60 -2 15 -4 0 -4 -33z"/>
<path d="M912 7168 c-1 -43 2 -80 8 -83 6 -3 11 -18 11 -33 1 -19 3 -22 6 -8
3 10 0 28 -6 40 -6 11 -12 53 -14 91 l-3 70 -2 -77z"/>
<path d="M11873 7130 c0 -25 2 -35 4 -22 2 12 2 32 0 45 -2 12 -4 2 -4 -23z"/>
<path d="M943 6975 c0 -27 2 -38 4 -22 2 15 2 37 0 50 -2 12 -4 0 -4 -28z"/>
<path d="M11843 6960 c0 -30 2 -43 4 -27 2 15 2 39 0 55 -2 15 -4 2 -4 -28z"/>
<path d="M956 6887 c3 -10 9 -15 12 -12 3 3 0 11 -7 18 -10 9 -11 8 -5 -6z"/>
<path d="M976 6803 c3 -35 11 -75 19 -90 8 -16 15 -44 15 -63 0 -20 5 -41 11
-47 7 -7 15 -29 19 -50 7 -36 8 -36 9 -7 0 16 -6 39 -14 50 -8 10 -15 34 -15
52 0 19 -7 48 -15 65 -8 18 -19 59 -24 92 l-10 60 5 -62z"/>
<path d="M11812 6820 c0 -19 2 -27 5 -17 2 9 2 25 0 35 -3 9 -5 1 -5 -18z"/>
<path d="M11782 6690 c0 -14 2 -19 5 -12 2 6 2 18 0 25 -3 6 -5 1 -5 -13z"/>
<path d="M11772 6640 c0 -14 2 -19 5 -12 2 6 2 18 0 25 -3 6 -5 1 -5 -13z"/>
<path d="M11742 6540 c0 -19 2 -27 5 -17 2 9 2 25 0 35 -3 9 -5 1 -5 -18z"/>
<path d="M1071 6450 c0 -14 8 -43 19 -65 11 -22 19 -52 20 -66 0 -15 8 -33 18
-40 14 -11 15 -11 5 1 -7 8 -13 25 -13 40 0 14 -7 38 -16 55 -8 16 -19 46 -24
65 -6 27 -8 30 -9 10z"/>
<path d="M11712 6440 c0 -14 2 -19 5 -12 2 6 2 18 0 25 -3 6 -5 1 -5 -13z"/>
<path d="M11682 6350 c0 -14 2 -19 5 -12 2 6 2 18 0 25 -3 6 -5 1 -5 -13z"/>
<path d="M1142 6235 c0 -16 2 -22 5 -12 2 9 2 23 0 30 -3 6 -5 -1 -5 -18z"/>
<path d="M11642 6230 c0 -14 2 -19 5 -12 2 6 2 18 0 25 -3 6 -5 1 -5 -13z"/>
<path d="M1156 6190 c6 -8 14 -31 18 -51 4 -21 13 -42 21 -49 8 -7 15 -25 15
-40 0 -15 7 -33 15 -40 8 -7 15 -19 15 -26 0 -12 22 -62 56 -126 8 -14 14 -33
14 -41 0 -8 7 -20 15 -27 8 -7 15 -23 15 -36 0 -12 4 -25 9 -28 7 -5 50 -86
65 -126 6 -15 12 -27 35 -65 6 -11 18 -33 26 -50 15 -29 22 -43 45 -82 6 -10
15 -27 20 -38 6 -11 19 -33 30 -50 11 -16 27 -43 35 -60 18 -35 28 -51 73
-117 17 -26 32 -53 32 -59 0 -6 15 -30 33 -52 31 -40 49 -67 63 -97 4 -8 26
-40 49 -70 22 -30 48 -66 57 -80 9 -14 39 -56 67 -95 28 -38 66 -94 86 -122
20 -29 60 -81 90 -115 30 -35 55 -67 55 -71 0 -5 29 -41 65 -80 36 -39 65 -76
65 -82 0 -5 21 -30 46 -55 25 -25 77 -96 116 -158 74 -118 77 -121 121 -137
16 -5 85 -66 155 -135 70 -69 98 -94 62 -56 -36 38 -93 97 -127 131 -35 35
-63 66 -63 69 0 4 -11 17 -23 29 -25 23 -80 86 -157 176 -25 30 -62 71 -82 92
-21 20 -38 41 -38 45 0 9 -100 126 -117 137 -7 4 -13 13 -13 19 0 13 -68 99
-87 111 -7 4 -13 12 -13 17 0 6 -7 18 -16 28 -16 18 -94 126 -154 212 -19 28
-55 79 -80 113 -54 75 -67 96 -79 122 -5 12 -16 27 -25 34 -9 7 -16 19 -16 26
0 7 -7 15 -15 19 -8 3 -15 12 -15 21 0 8 -16 38 -35 65 -19 27 -35 57 -35 65
0 8 -4 15 -10 15 -5 0 -17 15 -25 33 -21 44 -41 77 -54 90 -6 6 -11 19 -11 28
0 9 -7 19 -15 23 -8 3 -15 14 -15 25 0 11 -5 23 -10 26 -6 4 -17 21 -25 38 -8
18 -20 41 -26 52 -23 38 -29 50 -35 65 -15 40 -58 121 -65 126 -5 3 -9 16 -9
28 0 13 -7 29 -15 36 -8 7 -15 19 -15 26 0 12 -22 62 -56 126 -8 14 -14 35
-14 46 0 11 -7 22 -15 26 -9 3 -15 18 -15 34 0 16 -7 35 -15 42 -8 7 -18 30
-21 51 -4 21 -14 44 -23 51 -14 11 -14 11 -5 -2z"/>
<path d="M11612 6150 c0 -14 2 -19 5 -12 2 6 2 18 0 25 -3 6 -5 1 -5 -13z"/>
<path d="M11581 6074 c0 -11 3 -14 6 -6 3 7 2 16 -1 19 -3 4 -6 -2 -5 -13z"/>
<path d="M11542 5980 c0 -14 2 -19 5 -12 2 6 2 18 0 25 -3 6 -5 1 -5 -13z"/>
<path d="M11511 5904 c0 -11 3 -14 6 -6 3 7 2 16 -1 19 -3 4 -6 -2 -5 -13z"/>
<path d="M11442 5750 c0 -14 2 -19 5 -12 2 6 2 18 0 25 -3 6 -5 1 -5 -13z"/>
<path d="M11411 5694 c0 -11 3 -14 6 -6 3 7 2 16 -1 19 -3 4 -6 -2 -5 -13z"/>
<path d="M2933 3668 c-9 -51 -8 -66 3 -78 12 -13 14 -11 14 10 0 14 3 45 6 68
10 71 -11 70 -23 0z"/>
<path d="M9689 3407 c-107 -106 -168 -166 -134 -134 33 31 65 57 70 57 6 0 39
29 75 64 36 35 68 62 72 60 4 -3 12 6 19 18 7 13 19 28 28 35 9 7 12 13 8 13
-15 0 21 30 50 41 16 6 22 13 15 16 -6 3 -10 9 -6 14 3 5 4 9 2 9 -2 -1 -91
-87 -199 -193z"/>
<path d="M3120 3385 c96 -96 177 -175 180 -175 3 0 -74 79 -170 175 -96 96
-177 175 -180 175 -3 0 74 -79 170 -175z"/>
<path d="M3340 3175 c19 -19 36 -35 39 -35 3 0 -10 16 -29 35 -19 19 -36 35
-39 35 -3 0 10 -16 29 -35z"/>
<path d="M9459 3193 c-13 -16 -12 -17 4 -4 9 7 17 15 17 17 0 8 -8 3 -21 -13z"/>
<path d="M9429 3153 c-13 -16 -12 -17 4 -4 9 7 17 15 17 17 0 8 -8 3 -21 -13z"/>
<path d="M3390 3137 c0 -2 15 -16 33 -33 l32 -29 -29 33 c-28 30 -36 37 -36
29z"/>
<path d="M9355 3098 l-40 -43 43 40 c23 21 42 40 42 42 0 8 -9 0 -45 -39z"/>
<path d="M3490 3045 c19 -19 36 -35 39 -35 3 0 -10 16 -29 35 -19 19 -36 35
-39 35 -3 0 10 -16 29 -35z"/>
<path d="M9279 3033 l-24 -28 28 24 c25 23 32 31 24 31 -2 0 -14 -12 -28 -27z"/>
<path d="M3585 2960 c27 -27 51 -50 54 -50 3 0 -17 23 -44 50 -27 28 -51 50
-54 50 -3 0 17 -22 44 -50z"/>
<path d="M9214 2968 l-29 -33 33 29 c17 17 32 31 32 33 0 8 -8 1 -36 -29z"/>
<path d="M9144 2908 l-29 -33 33 29 c17 17 32 31 32 33 0 8 -8 1 -36 -29z"/>
<path d="M3650 2906 c0 -2 8 -10 18 -17 15 -13 16 -12 3 4 -13 16 -21 21 -21
13z"/>
<path d="M3705 2860 c10 -11 20 -20 23 -20 3 0 -3 9 -13 20 -10 11 -20 20 -23
20 -3 0 3 -9 13 -20z"/>
<path d="M9089 2863 c-13 -16 -12 -17 4 -4 16 13 21 21 13 21 -2 0 -10 -8 -17
-17z"/>
<path d="M9044 2828 l-19 -23 23 19 c21 18 27 26 19 26 -2 0 -12 -10 -23 -22z"/>
<path d="M3785 2790 c27 -27 51 -50 54 -50 3 0 -17 23 -44 50 -27 28 -51 50
-54 50 -3 0 17 -22 44 -50z"/>
<path d="M8965 2758 l-50 -53 53 50 c48 46 57 55 49 55 -1 0 -25 -24 -52 -52z"/>
<path d="M3850 2736 c0 -2 8 -10 18 -17 15 -13 16 -12 3 4 -13 16 -21 21 -21
13z"/>
<path d="M3890 2706 c0 -2 8 -10 18 -17 15 -13 16 -12 3 4 -13 16 -21 21 -21
13z"/>
<path d="M8874 2688 l-19 -23 23 19 c12 11 22 21 22 23 0 8 -8 2 -26 -19z"/>
<path d="M3960 2645 c19 -19 36 -35 39 -35 3 0 -10 16 -29 35 -19 19 -36 35
-39 35 -3 0 10 -16 29 -35z"/>
<path d="M8814 2638 l-29 -33 33 29 c17 17 32 31 32 33 0 8 -8 1 -36 -29z"/>
<path d="M4010 2606 c0 -2 8 -10 18 -17 15 -13 16 -12 3 4 -13 16 -21 21 -21
13z"/>
<path d="M8759 2593 c-13 -16 -12 -17 4 -4 16 13 21 21 13 21 -2 0 -10 -8 -17
-17z"/>
<path d="M4050 2576 c0 -2 8 -10 18 -17 15 -13 16 -12 3 4 -13 16 -21 21 -21
13z"/>
<path d="M8714 2558 l-19 -23 23 19 c21 18 27 26 19 26 -2 0 -12 -10 -23 -22z"/>
<path d="M4105 2530 c10 -11 20 -20 23 -20 3 0 -3 9 -13 20 -10 11 -20 20 -23
20 -3 0 3 -9 13 -20z"/>
<path d="M8669 2523 c-13 -16 -12 -17 4 -4 16 13 21 21 13 21 -2 0 -10 -8 -17
-17z"/>
<path d="M4172 2475 c21 -22 39 -37 41 -34 2 2 -15 19 -37 38 l-41 35 37 -39z"/>
<path d="M8609 2473 l-34 -38 38 34 c34 33 42 41 34 41 -2 0 -19 -17 -38 -37z"/>
<path d="M4230 2436 c0 -2 8 -10 18 -17 15 -13 16 -12 3 4 -13 16 -21 21 -21
13z"/>
<path d="M4302 2375 c21 -22 39 -37 41 -34 2 2 -15 19 -37 38 l-41 35 37 -39z"/>
<path d="M8479 2373 l-34 -38 38 34 c34 33 42 41 34 41 -2 0 -19 -17 -38 -37z"/>
<path d="M4360 2336 c0 -2 8 -10 18 -17 15 -13 16 -12 3 4 -13 16 -21 21 -21
13z"/>
<path d="M4415 2290 c10 -11 20 -20 23 -20 3 0 -3 9 -13 20 -10 11 -20 20 -23
20 -3 0 3 -9 13 -20z"/>
<path d="M8348 2275 c-21 -19 -34 -35 -30 -35 5 0 23 16 42 35 44 45 36 45
-12 0z"/>
<path d="M4450 2266 c0 -2 8 -10 18 -17 15 -13 16 -12 3 4 -13 16 -21 21 -21
13z"/>
<path d="M4490 2236 c0 -2 8 -10 18 -17 15 -13 16 -12 3 4 -13 16 -21 21 -21
13z"/>
<path d="M8279 2223 c-13 -16 -12 -17 4 -4 16 13 21 21 13 21 -2 0 -10 -8 -17
-17z"/>
<path d="M4572 2175 c21 -22 39 -37 41 -34 2 2 -15 19 -37 38 l-41 35 37 -39z"/>
<path d="M8204 2168 l-29 -33 33 29 c17 17 32 31 32 33 0 8 -8 1 -36 -29z"/>
<path d="M8139 2123 c-13 -16 -12 -17 4 -4 16 13 21 21 13 21 -2 0 -10 -8 -17
-17z"/>
<path d="M4650 2127 c0 -2 15 -16 33 -33 l32 -29 -29 33 c-28 30 -36 37 -36
29z"/>
<path d="M8099 2093 c-13 -16 -12 -17 4 -4 16 13 21 21 13 21 -2 0 -10 -8 -17
-17z"/>
<path d="M4730 2066 c0 -2 8 -10 18 -17 15 -13 16 -12 3 4 -13 16 -21 21 -21
13z"/>
<path d="M8039 2053 c-13 -16 -12 -17 4 -4 16 13 21 21 13 21 -2 0 -10 -8 -17
-17z"/>
<path d="M4770 2036 c0 -2 8 -10 18 -17 15 -13 16 -12 3 4 -13 16 -21 21 -21
13z"/>
<path d="M7999 2023 c-13 -16 -12 -17 4 -4 16 13 21 21 13 21 -2 0 -10 -8 -17
-17z"/>
<path d="M4810 2006 c0 -2 8 -10 18 -17 15 -13 16 -12 3 4 -13 16 -21 21 -21
13z"/>
<path d="M7959 1993 c-13 -16 -12 -17 4 -4 16 13 21 21 13 21 -2 0 -10 -8 -17
-17z"/>
<path d="M4870 1966 c0 -2 8 -10 18 -17 15 -13 16 -12 3 4 -13 16 -21 21 -21
13z"/>
<path d="M7899 1953 c-13 -16 -12 -17 4 -4 16 13 21 21 13 21 -2 0 -10 -8 -17
-17z"/>
<path d="M4910 1936 c0 -2 8 -10 18 -17 15 -13 16 -12 3 4 -13 16 -21 21 -21
13z"/>
<path d="M7859 1923 c-13 -16 -12 -17 4 -4 16 13 21 21 13 21 -2 0 -10 -8 -17
-17z"/>
<path d="M4960 1906 c0 -2 8 -10 18 -17 15 -13 16 -12 3 4 -13 16 -21 21 -21
13z"/>
<path d="M7804 1888 l-19 -23 23 19 c12 11 22 21 22 23 0 8 -8 2 -26 -19z"/>
<path d="M5000 1876 c0 -2 8 -10 18 -17 15 -13 16 -12 3 4 -13 16 -21 21 -21
13z"/>
<path d="M7759 1853 c-13 -16 -12 -17 4 -4 16 13 21 21 13 21 -2 0 -10 -8 -17
-17z"/>
<path d="M7709 1823 c-13 -16 -12 -17 4 -4 16 13 21 21 13 21 -2 0 -10 -8 -17
-17z"/>
<path d="M5110 1806 c0 -2 8 -10 18 -17 15 -13 16 -12 3 4 -13 16 -21 21 -21
13z"/>
<path d="M5170 1766 c0 -2 8 -10 18 -17 15 -13 16 -12 3 4 -13 16 -21 21 -21
13z"/>
<path d="M7599 1753 c-13 -16 -12 -17 4 -4 16 13 21 21 13 21 -2 0 -10 -8 -17
-17z"/>
<path d="M5210 1736 c0 -2 8 -10 18 -17 15 -13 16 -12 3 4 -13 16 -21 21 -21
13z"/>
<path d="M7559 1723 c-13 -16 -12 -17 4 -4 9 7 17 15 17 17 0 8 -8 3 -21 -13z"/>
<path d="M5260 1706 c0 -2 8 -10 18 -17 15 -13 16 -12 3 4 -13 16 -21 21 -21
13z"/>
<path d="M7504 1688 l-19 -23 23 19 c21 18 27 26 19 26 -2 0 -12 -10 -23 -22z"/>
<path d="M5317 1659 c12 -12 24 -21 27 -18 2 2 -8 13 -22 23 l-27 19 22 -24z"/>
<path d="M7459 1653 c-13 -16 -12 -17 4 -4 16 13 21 21 13 21 -2 0 -10 -8 -17
-17z"/>
<path d="M5370 1636 c0 -2 8 -10 18 -17 15 -13 16 -12 3 4 -13 16 -21 21 -21
13z"/>
<path d="M7409 1623 c-13 -16 -12 -17 4 -4 16 13 21 21 13 21 -2 0 -10 -8 -17
-17z"/>
<path d="M5410 1606 c0 -2 8 -10 18 -17 15 -13 16 -12 3 4 -13 16 -21 21 -21
13z"/>
<path d="M7359 1593 c-13 -16 -12 -17 4 -4 16 13 21 21 13 21 -2 0 -10 -8 -17
-17z"/>
<path d="M5470 1566 c0 -2 8 -10 18 -17 15 -13 16 -12 3 4 -13 16 -21 21 -21
13z"/>
<path d="M7299 1553 c-13 -16 -12 -17 4 -4 16 13 21 21 13 21 -2 0 -10 -8 -17
-17z"/>
<path d="M5520 1536 c0 -2 8 -10 18 -17 15 -13 16 -12 3 4 -13 16 -21 21 -21
13z"/>
<path d="M7259 1523 c-13 -16 -12 -17 4 -4 16 13 21 21 13 21 -2 0 -10 -8 -17
-17z"/>
<path d="M5585 1490 c10 -11 20 -20 23 -20 3 0 -3 9 -13 20 -10 11 -20 20 -23
20 -3 0 3 -9 13 -20z"/>
<path d="M7194 1488 l-19 -23 23 19 c21 18 27 26 19 26 -2 0 -12 -10 -23 -22z"/>
<path d="M5640 1466 c0 -2 8 -10 18 -17 15 -13 16 -12 3 4 -13 16 -21 21 -21
13z"/>
<path d="M7139 1453 c-13 -16 -12 -17 4 -4 16 13 21 21 13 21 -2 0 -10 -8 -17
-17z"/>
<path d="M5680 1436 c0 -2 8 -10 18 -17 15 -13 16 -12 3 4 -13 16 -21 21 -21
13z"/>
<path d="M7089 1423 c-13 -16 -12 -17 4 -4 16 13 21 21 13 21 -2 0 -10 -8 -17
-17z"/>
<path d="M7034 1388 l-19 -23 23 19 c12 11 22 21 22 23 0 8 -8 2 -26 -19z"/>
<path d="M5750 1396 c0 -2 8 -10 18 -17 15 -13 16 -12 3 4 -13 16 -21 21 -21
13z"/>
<path d="M5800 1366 c0 -2 8 -10 18 -17 15 -13 16 -12 3 4 -13 16 -21 21 -21
13z"/>
<path d="M5850 1336 c0 -2 8 -10 18 -17 15 -13 16 -12 3 4 -13 16 -21 21 -21
13z"/>
<path d="M6929 1323 c-13 -16 -12 -17 4 -4 16 13 21 21 13 21 -2 0 -10 -8 -17
-17z"/>
<path d="M5900 1306 c0 -2 8 -10 18 -17 15 -13 16 -12 3 4 -13 16 -21 21 -21
13z"/>
<path d="M6864 1288 l-19 -23 23 19 c12 11 22 21 22 23 0 8 -8 2 -26 -19z"/>
<path d="M5970 1266 c0 -2 8 -10 18 -17 15 -13 16 -12 3 4 -13 16 -21 21 -21
13z"/>
<path d="M6799 1253 c-13 -16 -12 -17 4 -4 16 13 21 21 13 21 -2 0 -10 -8 -17
-17z"/>
<path d="M6020 1236 c0 -2 8 -10 18 -17 15 -13 16 -12 3 4 -13 16 -21 21 -21
13z"/>
<path d="M6759 1223 c-13 -16 -12 -17 4 -4 16 13 21 21 13 21 -2 0 -10 -8 -17
-17z"/>
<path d="M6699 1193 c-13 -16 -12 -17 4 -4 9 7 17 15 17 17 0 8 -8 3 -21 -13z"/>
<path d="M6140 1166 c0 -2 8 -10 18 -17 15 -13 16 -12 3 4 -13 16 -21 21 -21
13z"/>
<path d="M6629 1153 c-13 -16 -12 -17 4 -4 9 7 17 15 17 17 0 8 -8 3 -21 -13z"/>
<path d="M6200 1136 c0 -2 8 -10 18 -17 15 -13 16 -12 3 4 -13 16 -21 21 -21
13z"/>
<path d="M6250 1106 c0 -2 8 -10 18 -17 15 -13 16 -12 3 4 -13 16 -21 21 -21
13z"/>
</g>
</svg>
